<?xml version="1.0" encoding="utf-8"?>
<!-- Generator: Adobe Illustrator 22.0.1, SVG Export Plug-In . SVG Version: 6.00 Build 0)  -->
<svg version="1.1" id="svg8" xmlns="http://www.w3.org/2000/svg" xmlns:xlink="http://www.w3.org/1999/xlink" x="0px" y="0px"
	 viewBox="0 0 3750 2625" style="enable-background:new 0 0 3750 2625;" xml:space="preserve">
<style type="text/css">
	.st0{opacity:0.11;fill:#020202;}
	.st1{fill:#FEFEFD;stroke:#450064;stroke-width:15.4413;stroke-linecap:round;stroke-linejoin:round;}
	.st2{fill:#E0F3FD;}
	.st3{opacity:0.129;fill:#450064;enable-background:new    ;}
	.st4{opacity:0.173;fill:#450064;enable-background:new    ;}
	.st5{opacity:0.101;}
	.st6{fill:#450064;}
	.st7{opacity:0.345;fill:#450064;enable-background:new    ;}
	.st8{opacity:0.313;fill:#450064;enable-background:new    ;}
	.st9{fill:#7ACBF5;}
	.st10{fill:#6DB5DA;}
	.st11{fill:#3677BC;stroke:#450064;stroke-width:2.0228;stroke-linejoin:round;}
	.st12{fill:#473488;stroke:#450064;stroke-width:2;stroke-linejoin:round;}
	.st13{fill:#FFFFFF;}
	.st14{fill:#7ACBF5;stroke:#450064;stroke-width:1.538;stroke-linejoin:round;}
	.st15{opacity:0.385;fill:#FFFFFF;enable-background:new    ;}
	.st16{fill:#3677BC;stroke:#450064;stroke-width:2.6925;stroke-linejoin:round;}
	.st17{fill:#5D6C53;stroke:#450064;stroke-width:6.2707;stroke-linejoin:round;}
	.st18{fill:#FFCD55;stroke:#450064;stroke-width:3.1215;stroke-linejoin:round;}
	.st19{fill:#FFCD55;stroke:#450064;stroke-width:3;stroke-linejoin:round;}
	.st20{fill:#FFFDF8;stroke:#450064;stroke-width:3;stroke-linejoin:round;}
	.st21{fill:#450064;stroke:#450064;stroke-width:5.2808;stroke-linejoin:round;}
	.st22{fill:#FF8681;stroke:#450064;stroke-width:3;stroke-linejoin:round;}
	.st23{fill:#7ACBF5;stroke:#450064;stroke-width:2.9667;stroke-linejoin:round;}
	.st24{fill:none;stroke:#450064;stroke-width:2.9667;stroke-linejoin:round;}
	.st25{opacity:0.187;fill:#450064;stroke:#000000;stroke-width:0.3562;enable-background:new    ;}
	.st26{opacity:0.241;fill:#FEFDFC;enable-background:new    ;}
	.st27{fill:none;stroke:#450064;stroke-width:5;stroke-linejoin:round;}
	.st28{opacity:0.313;fill:#64C4F6;enable-background:new    ;}
	.st29{fill:none;stroke:#450064;stroke-width:2.5;stroke-linejoin:round;}
	.st30{opacity:0.388;fill:#450064;stroke:#450064;stroke-width:2.6925;stroke-linejoin:round;enable-background:new    ;}
	.st31{opacity:0.237;fill:#450064;stroke:#450064;stroke-width:2.0706;stroke-linejoin:round;enable-background:new    ;}
	.st32{fill:none;stroke:#450064;stroke-width:3.4409;stroke-linejoin:round;}
	.st33{fill:none;stroke:#450064;stroke-width:3.1215;stroke-linejoin:round;}
	.st34{fill:none;stroke:#450064;stroke-width:5.2808;stroke-linejoin:round;}
	.st35{fill:#28AEF3;}
	.st36{fill:#FF8580;}
	.st37{fill:#E4E3E0;stroke:#E4E3E0;stroke-width:4.2068;stroke-linecap:round;stroke-linejoin:round;}
	.st38{fill:#28AEF3;stroke:#28AEF3;stroke-width:4.2068;stroke-linecap:round;stroke-linejoin:round;}
	.st39{fill:#FFF7DD;}
</style>
<path id="rect1212" class="st0" d="M388.4,391.8h2871c14.1,0,25.5,11.4,25.5,25.5v1900.2c0,14.1-11.4,25.5-25.5,25.5h-2871
	c-14.1,0-25.5-11.4-25.5-25.5V417.4C362.9,403.3,374.3,391.8,388.4,391.8z"/>
<path id="rect1192" class="st1" d="M482,328.6h2795.4c13.7,0,24.9,11.1,24.9,24.9v1850.1c0,13.7-11.1,24.9-24.9,24.9H482
	c-13.7,0-24.9-11.1-24.9-24.9V353.5C457.1,339.8,468.3,328.6,482,328.6z"/>
<path id="rect1245" class="st2" d="M586.3,1987.6h2623.8c13.8,0,24.9,11.1,24.9,24.9v76c0,13.8-11.1,24.9-24.9,24.9H586.3
	c-13.8,0-24.9-11.1-24.9-24.9v-76C561.4,1998.7,572.5,1987.6,586.3,1987.6z M2207.6,1312.6H3177c13.8,0,24.9,11.1,24.9,24.9v426.7
	c0,13.8-11.1,24.9-24.9,24.9h-969.4c-13.8,0-24.9-11.1-24.9-24.9v-426.7C2182.8,1323.7,2193.8,1312.6,2207.6,1312.6z M725.3,829.5
	h843.7c13.8,0,24.9,11.1,24.9,24.9v519.4c0,13.8-11.1,24.9-24.9,24.9H725.3c-13.8,0-24.9-11.1-24.9-24.9V854.4
	C700.4,840.6,711.5,829.5,725.3,829.5z M573,458.9h2643.7c13.8,0,24.9,11.1,24.9,24.9v82.6c0,13.8-11.1,24.9-24.9,24.9H573
	c-13.8,0-24.9-11.1-24.9-24.9v-82.6C548.2,470,559.3,458.9,573,458.9L573,458.9z"/>
<path id="path1228" class="st3" d="M1028.6,961.6l-107.3,91.1L896,914.2L1028.6,961.6z M2824.9,1215.9l53,91.2l-91.2,53l-53-91.2
	L2824.9,1215.9z M2676.2,1941.6c0,38-30.8,68.7-68.7,68.7l0,0c-38,0-68.7-30.8-68.7-68.7s30.8-68.7,68.7-68.7
	C2645.4,1872.8,2676.2,1903.6,2676.2,1941.6C2676.2,1941.6,2676.2,1941.6,2676.2,1941.6L2676.2,1941.6z M2135.8,674.7l-101.7-60.5
	l103.3-57.8L2135.8,674.7z M2805.2,998.5c0,25.2-20.4,45.6-45.6,45.6c-25.2,0-45.6-20.4-45.6-45.6c0-25.2,20.4-45.6,45.6-45.6
	c0,0,0,0,0,0C2784.8,953,2805.2,973.4,2805.2,998.5L2805.2,998.5z M2843.1,1600.6l-121.1,71.7l-1.6-140.8L2843.1,1600.6z
	 M1517.1,656.9l-101.9,27.3l-27.3-101.9l101.9-27.3L1517.1,656.9z M958.2,1457.1c0,38-30.8,68.7-68.7,68.7l0,0
	c-38,0-68.7-30.8-68.7-68.7c0-38,30.8-68.7,68.7-68.7C927.4,1388.4,958.2,1419.1,958.2,1457.1L958.2,1457.1z"/>
<path id="path1122" class="st4" d="M2302.8,1946.8L2302.8,1946.8l-780.2,0c-9,0-16.4,3.9-18.7,9.2l-105.6,49.2l-14.8,6.9
	c-0.9,0.4-1.8,0.9-2.7,1.3c-6.1,3.1-10.7,6.6-14,10.3c-0.9,1.1-1.7,2.1-2.4,3.2c-0.3,0.5-0.7,1.1-1,1.6c-0.6,1.1-1,2.2-1.4,3.3
	c-0.2,0.6-0.3,1.1-0.4,1.7c-0.2,1.1-0.3,2.2-0.3,3.4c0,0.6,0,1.1,0.1,1.7c0.1,1.1,0.3,2.2,0.7,3.3c0.3,1.1,0.8,2.2,1.4,3.3
	c1.2,2.2,2.8,4.3,4.9,6.4c0.5,0.5,1.1,1,1.6,1.5c1.2,1,2.4,2,3.8,3c0.7,0.5,1.4,1,2.2,1.4c1.5,0.9,3.1,1.9,4.9,2.8
	c0.9,0.4,1.8,0.9,2.7,1.3l15.5,7.2l39.7,18.4l65.2,30.2c2.1,5.5,9.7,9.5,18.8,9.5h864.2c10.8,0,19.4-5.6,19.5-12.6c0,0,0,0,0,0
	v-154.9c0,0,0,0,0,0c0-7-8.7-12.6-19.5-12.6h-24.4c0,0-0.1,0-0.1,0L2302.8,1946.8z"/>
<g id="g1048" transform="matrix(1.3462694,0,0,1.3462694,754.33171,-259.50292)" class="st5">
	<path id="rect947" class="st6" d="M1299.7,1192.4h25.5c7.2,0,13,6.9,13,15.5v191.8c0,8.6-5.8,15.5-13,15.5h-25.5
		c-7.2,0-13-6.9-13-15.5v-191.8C1286.8,1199.4,1292.6,1192.4,1299.7,1192.4z"/>
	<path id="rect949" class="st6" d="M290.5,1192.4h25.5c7.2,0,13,6.9,13,15.5v191.8c0,8.6-5.8,15.5-13,15.5h-25.5
		c-7.2,0-13-6.9-13-15.5v-191.8C277.5,1199.4,283.3,1192.4,290.5,1192.4z"/>
	<path id="rect951" class="st6" d="M348.2,832.4h917.1c30.9,0,55.7,24.8,55.7,55.7v557.1c0,30.9-24.8,55.7-55.7,55.7H348.2
		c-30.9,0-55.7-24.8-55.7-55.7V888.1C292.5,857.3,317.3,832.4,348.2,832.4z"/>
	<path id="rect953" class="st6" d="M391.5,899.4h828.6c7.2,0,13,6.6,13,14.8v418.7c0,8.2-5.8,14.8-13,14.8H391.5
		c-7.2,0-13-6.6-13-14.8V914.2C378.5,906,384.3,899.4,391.5,899.4z"/>
	<path id="rect955" class="st6" d="M391.5,884.2h828.6c7.2,0,13,6.6,13,14.8v418.7c0,8.2-5.8,14.8-13,14.8H391.5
		c-7.2,0-13-6.6-13-14.8V899.1C378.5,890.8,384.3,884.2,391.5,884.2z"/>
	<path id="rect957" class="st7" d="M451.6,1039.7h710.3c15.6,0,28.2,12.6,28.2,28.2v143.6c0,15.6-12.6,28.2-28.2,28.2H451.6
		c-15.6,0-28.2-12.6-28.2-28.2v-143.6C423.4,1052.3,436,1039.7,451.6,1039.7z"/>
	<path id="path959" class="st6" d="M292.5,1421.7v23.6c0,30.9,24.8,55.7,55.7,55.7h917.1c30.9,0,55.7-24.8,55.7-55.7v-23.6
		c0,30.9-24.8,55.7-55.7,55.7H348.2C317.3,1477.4,292.5,1452.6,292.5,1421.7L292.5,1421.7z"/>
	<path id="path961" class="st6" d="M484.8,1336.1c-5.7,0-10.7,3.1-13.7,7.1c-3,3.9-4.6,8.6-5.5,13.5c0,0,0,0.1,0,0.1L442.2,1501H456
		l22.9-142c0.6-3.3,1.8-6.1,2.9-7.6c1.2-1.5,1.7-1.8,2.9-1.8h51.6h540.8h51.6c1.3,0,1.8,0.3,2.9,1.8c1.2,1.5,2.3,4.3,2.9,7.6
		l22.9,142h13.7l-23.3-144.2c0,0,0-0.1,0-0.1c-0.9-4.8-2.5-9.5-5.5-13.5c-3-3.9-8-7.1-13.7-7.1h-51.6H536.4H484.8z"/>
	<path id="rect963" class="st6" d="M451.6,1025.8h710.3c15.6,0,28.2,12.6,28.2,28.2v143.6c0,15.6-12.6,28.2-28.2,28.2H451.6
		c-15.6,0-28.2-12.6-28.2-28.2V1054C423.4,1038.4,436,1025.8,451.6,1025.8L451.6,1025.8z"/>
	<path id="path965" class="st6" d="M565.7,1055.2c-39.6,0-71.7,32.1-71.7,71.7c0,0,0,0,0,0c0,39.6,32.1,71.7,71.7,71.7c0,0,0,0,0,0
		c39.6,0,71.7-32.1,71.7-71.7C637.5,1087.3,605.4,1055.2,565.7,1055.2z M556.8,1071.1v3.3c0,3.3,2.1,6,4.7,6h8.5
		c2.6,0,4.7-2.7,4.7-6v-3.2c13.8,2.2,26.3,9.4,35.1,20.3l-2.8,1.6c-2.9,1.7-4.2,4.8-2.9,7l4.3,7.4c1.3,2.2,4.6,2.7,7.5,1l2.7-1.6
		c2.4,6.4,3.7,13.2,3.7,20c0,7-1.3,13.9-3.9,20.4l-2.5-1.5c-2.9-1.7-6.2-1.2-7.5,1l-4.3,7.4c-1.3,2.2,0,5.4,2.9,7l2.5,1.4
		c-8.8,10.7-21.2,17.8-34.8,20v-2.8c0-3.3-2.1-6-4.7-6h-8.5c-2.6,0-4.7,2.7-4.7,6v2.7c-13.7-2.2-26-9.3-34.8-20l2.5-1.4
		c2.9-1.7,4.2-4.8,2.9-7l-4.3-7.4c-1.3-2.2-4.6-2.7-7.5-1l-2.6,1.5c-2.5-6.5-3.8-13.4-3.8-20.4c0-6.8,1.3-13.6,3.7-20l2.7,1.5
		c2.9,1.7,6.2,1.2,7.5-1l4.3-7.4c1.3-2.2,0-5.4-2.9-7l-2.8-1.6C530.5,1080.6,543,1073.3,556.8,1071.1L556.8,1071.1z"/>
	<path id="path967" class="st6" d="M1055.1,1055.2c-39.6,0-71.7,32.1-71.7,71.7c0,39.6,32.1,71.7,71.7,71.7c0,0,0,0,0,0
		c39.6,0,71.7-32.1,71.7-71.7C1126.8,1087.3,1094.7,1055.2,1055.1,1055.2z M1046.2,1071.1v3.3c0,3.3,2.1,6,4.7,6h8.5
		c2.6,0,4.7-2.7,4.7-6v-3.2c13.8,2.2,26.3,9.4,35.1,20.3l-2.8,1.6c-2.9,1.7-4.2,4.8-2.9,7l4.3,7.4c1.3,2.2,4.6,2.7,7.5,1l2.7-1.6
		c2.4,6.4,3.7,13.2,3.7,20c0,7-1.3,13.9-3.9,20.4l-2.5-1.5c-2.9-1.7-6.2-1.2-7.5,1l-4.3,7.4c-1.3,2.2,0,5.4,2.9,7l2.5,1.4
		c-8.8,10.7-21.2,17.8-34.8,20v-2.8c0-3.3-2.1-6-4.7-6h-8.5c-2.6,0-4.7,2.7-4.7,6v2.7c-13.7-2.2-26-9.3-34.8-20l2.5-1.4
		c2.9-1.7,4.2-4.8,2.9-7l-4.3-7.4c-1.3-2.2-4.6-2.7-7.5-1l-2.6,1.5c-2.5-6.5-3.8-13.4-3.8-20.4c0-6.8,1.3-13.6,3.7-20l2.7,1.5
		c2.9,1.7,6.2,1.2,7.5-1l4.3-7.4c1.3-2.2,0-5.4-2.9-7l-2.8-1.6C1019.9,1080.6,1032.4,1073.3,1046.2,1071.1L1046.2,1071.1z"/>
	<g id="g973" transform="translate(-1365.7196,-125.6358)">
		<path id="rect969" class="st6" d="M2049.1,1182.4h246.8c7.2,0,13,5.8,13,13v107.4c0,7.2-5.8,13-13,13h-246.8c-7.2,0-13-5.8-13-13
			v-107.4C2036.1,1188.2,2041.9,1182.4,2049.1,1182.4z"/>
		<path id="path971" class="st6" d="M2049.1,1182.4c-7.2,0-13,5.8-13,13v107.4c0,7.2,5.8,13,13,13h118.5
			c8.2-21.3,12.4-43.9,12.5-66.7c0-22.8-4.2-45.4-12.3-66.7H2049.1z"/>
	</g>
	<path id="circle975" class="st6" d="M364.9,878c0,14.2-11.5,25.8-25.8,25.8c-14.2,0-25.8-11.5-25.8-25.8s11.5-25.8,25.8-25.8l0,0
		C353.4,852.2,364.9,863.7,364.9,878L364.9,878z"/>
	<path id="circle977" class="st6" d="M364.9,1452.3c0,14.2-11.5,25.8-25.8,25.8c-14.2,0-25.8-11.5-25.8-25.8
		c0-14.2,11.5-25.8,25.8-25.8C353.4,1426.5,364.9,1438,364.9,1452.3z"/>
	<path id="circle979" class="st6" d="M1301.3,1452.3c0,14.2-11.5,25.8-25.8,25.8c-14.2,0-25.8-11.5-25.8-25.8
		c0-14.2,11.5-25.8,25.8-25.8C1289.8,1426.5,1301.3,1438,1301.3,1452.3z"/>
	<path id="circle981" class="st6" d="M1301.3,878c0,14.2-11.5,25.8-25.8,25.8c-14.2,0-25.8-11.5-25.8-25.8s11.5-25.8,25.8-25.8l0,0
		C1289.8,852.2,1301.3,863.7,1301.3,878L1301.3,878z"/>
	<path id="circle983" class="st6" d="M554.3,1446.2c0,11.7-9.5,21.2-21.2,21.2c-11.7,0-21.2-9.5-21.2-21.2s9.5-21.2,21.2-21.2
		C544.8,1425,554.3,1434.5,554.3,1446.2z"/>
	<path id="rect985" class="st6" d="M615,1405.3h17.2c7.2,0,13,4.9,13,11v12.9c0,6.1-5.8,11-13,11H615c-7.2,0-13-4.9-13-11v-12.9
		C602,1410.2,607.8,1405.3,615,1405.3z"/>
	<path id="circle987" class="st6" d="M1065.7,1446.2c0,11.7,9.5,21.2,21.2,21.2c11.7,0,21.2-9.5,21.2-21.2s-9.5-21.2-21.2-21.2
		C1075.2,1425,1065.7,1434.5,1065.7,1446.2z"/>
	<path id="rect989" class="st6" d="M1004.9,1405.3h-17.2c-7.2,0-13,4.9-13,11v12.9c0,6.1,5.8,11,13,11h17.2c7.2,0,13-4.9,13-11
		v-12.9C1017.9,1410.2,1012.1,1405.3,1004.9,1405.3z"/>
	<path id="circle991" class="st6" d="M832.5,1387.6c0,14.2-11.5,25.8-25.8,25.8c-14.2,0-25.8-11.5-25.8-25.8s11.5-25.8,25.8-25.8
		C821,1361.8,832.5,1373.4,832.5,1387.6z"/>
	<path id="rect993" class="st6" d="M406.2,1246h792.6c7.2,0,13,4.9,13,11v53.1c0,6.1-5.8,11-13,11H406.2c-7.2,0-13-4.9-13-11V1257
		C393.2,1250.9,399,1246,406.2,1246z"/>
	<path id="rect995" class="st6" d="M348.2,832.4h917.1c30.9,0,55.7,24.8,55.7,55.7v557.1c0,30.9-24.8,55.7-55.7,55.7H348.2
		c-30.9,0-55.7-24.8-55.7-55.7V888.1C292.5,857.3,317.3,832.4,348.2,832.4z"/>
	<path id="path997" class="st8" d="M391.5,884.2c-7.2,0-13,6.6-13,14.8v13.6c0-8.2,5.8-14.8,13-14.8h828.6c7.2,0,13,6.6,13,14.8
		v-13.6c0-8.2-5.8-14.8-13-14.8H391.5z"/>
	<path id="rect999" class="st6" d="M391.5,884.2h828.6c7.2,0,13,6.6,13,14.8v418.7c0,8.2-5.8,14.8-13,14.8H391.5
		c-7.2,0-13-6.6-13-14.8V899.1C378.5,890.8,384.3,884.2,391.5,884.2z"/>
</g>
<path id="rect4626" class="st6" d="M2538,1291.6h34.3c9.6,0,17.5,9.4,17.5,20.9v258.3c0,11.5-7.8,20.9-17.5,20.9H2538
	c-9.6,0-17.5-9.4-17.5-20.9v-258.3C2520.5,1300.9,2528.3,1291.6,2538,1291.6z"/>
<path id="rect4624" class="st6" d="M1179.2,1291.6h34.3c9.6,0,17.5,9.4,17.5,20.9v258.3c0,11.5-7.8,20.9-17.5,20.9h-34.3
	c-9.6,0-17.5-9.4-17.5-20.9v-258.3C1161.7,1300.9,1169.6,1291.6,1179.2,1291.6z"/>
<path id="rect4589" class="st9" d="M1256.9,806.9h1234.7c41.4,0,75,33.6,75,75V1632c0,41.4-33.6,75-75,75H1256.9
	c-41.4,0-75-33.6-75-75V881.9C1181.9,840.5,1215.5,806.9,1256.9,806.9z"/>
<path id="rect924" class="st10" d="M1302,900.4h1115.6c9.6,0,17.5,8.9,17.5,19.9V1484c0,11-7.8,19.9-17.5,19.9H1302
	c-9.6,0-17.5-8.9-17.5-19.9V920.3C1284.6,909.3,1292.4,900.4,1302,900.4z"/>
<path id="rect4663" class="st11" d="M1315.3,876.7h1115.6c9.6,0,17.5,8.9,17.5,19.9v563.7c0,11-7.8,19.9-17.5,19.9H1315.3
	c-9.6,0-17.5-8.9-17.5-19.9V896.6C1297.8,885.6,1305.6,876.7,1315.3,876.7z"/>
<path id="rect926" class="st7" d="M1388,1087.2h956.3c21,0,38,17,38,38v193.3c0,21-17,38-38,38H1388c-21,0-38-17-38-38v-193.3
	C1350,1104.2,1367,1087.2,1388,1087.2z"/>
<path id="rect935" class="st10" d="M1181.9,1600.3v31.7c0,41.6,33.5,75,75,75h1234.7c41.6,0,75-33.5,75-75v-31.7
	c0,41.6-33.5,75-75,75H1256.9C1215.4,1675.3,1181.9,1641.8,1181.9,1600.3z"/>
<path id="rect4628" class="st6" d="M1440.8,1485c-7.7,0-14.4,4.2-18.5,9.5c-4.1,5.3-6.2,11.6-7.4,18.1c0,0.1,0,0.1,0,0.2
	l-31.4,194.2h18.5l30.9-191.1c0.8-4.5,2.4-8.2,3.9-10.3c1.5-2,2.3-2.4,4-2.4h69.5h728h69.5c1.7,0,2.4,0.4,4,2.4
	c1.5,2,3.1,5.8,3.9,10.3l30.9,191.1h18.5l-31.4-194.2c0-0.1,0-0.1,0-0.2c-1.2-6.5-3.4-12.8-7.4-18.1c-4.1-5.3-10.8-9.5-18.5-9.5
	h-69.5h-728H1440.8z"/>
<path id="rect4620" class="st12" d="M1396.2,1067.2h956.3c21,0,38,17,38,38v193.3c0,21-17,38-38,38h-956.3c-21,0-38-17-38-38v-193.3
	C1358.2,1084.2,1375.2,1067.2,1396.2,1067.2z"/>
<path id="path4591" class="st13" d="M1549.8,1106.8c-53.3,0-96.5,43.2-96.5,96.5v0c0,53.3,43.2,96.5,96.5,96.5c0,0,0,0,0,0
	c53.3,0,96.5-43.2,96.5-96.5C1646.4,1150.1,1603.1,1106.8,1549.8,1106.8z M1537.8,1128.2v4.4c0,4.5,2.8,8.1,6.3,8.1h11.5
	c3.5,0,6.3-3.6,6.3-8.1v-4.4c18.6,3,35.4,12.7,47.3,27.3l-3.7,2.2c-3.9,2.2-5.6,6.5-3.9,9.5l5.7,9.9c1.7,3,6.3,3.6,10.1,1.4l3.7-2.1
	c3.3,8.6,4.9,17.7,4.9,26.9c0,9.4-1.8,18.7-5.2,27.4l-3.4-2c-3.9-2.2-8.4-1.6-10.1,1.4l-5.7,9.9c-1.7,3,0,7.2,3.9,9.5l3.3,1.9
	c-11.8,14.4-28.5,24-46.9,26.9v-3.8c0-4.5-2.8-8.1-6.3-8.1h-11.5c-3.5,0-6.3,3.6-6.3,8.1v3.7c-18.4-2.9-35.1-12.5-46.9-26.9l3.3-1.9
	c3.9-2.2,5.6-6.5,3.9-9.5l-5.7-9.9c-1.7-3-6.3-3.6-10.1-1.4l-3.5,2c-3.4-8.8-5.1-18.1-5.1-27.5c0-9.2,1.7-18.3,5-26.9l3.6,2.1
	c3.9,2.2,8.4,1.6,10.1-1.4l5.7-9.9c1.7-3,0-7.2-3.9-9.5l-3.7-2.1C1502.4,1141,1519.2,1131.2,1537.8,1128.2L1537.8,1128.2z"/>
<path id="path4618" class="st13" d="M2208.7,1106.8c-53.3,0-96.5,43.2-96.5,96.5s43.2,96.5,96.5,96.5c0,0,0,0,0,0
	c53.3,0,96.5-43.2,96.5-96.5C2305.2,1150.1,2262,1106.8,2208.7,1106.8z M2196.7,1128.2v4.4c0,4.5,2.8,8.1,6.3,8.1h11.5
	c3.5,0,6.3-3.6,6.3-8.1v-4.4c18.6,3,35.4,12.7,47.3,27.3l-3.7,2.2c-3.9,2.2-5.6,6.5-3.9,9.5l5.7,9.9c1.7,3,6.3,3.6,10.1,1.4l3.7-2.1
	c3.3,8.6,4.9,17.7,4.9,26.9c0,9.4-1.8,18.7-5.2,27.4l-3.4-2c-3.9-2.2-8.4-1.6-10.1,1.4l-5.7,9.9c-1.7,3,0,7.2,3.9,9.5l3.3,1.9
	c-11.8,14.4-28.5,24-46.9,26.9v-3.8c0-4.5-2.8-8.1-6.3-8.1h-11.5c-3.5,0-6.3,3.6-6.3,8.1v3.7c-18.4-2.9-35.1-12.5-46.9-26.9l3.3-1.9
	c3.9-2.2,5.6-6.5,3.9-9.5l-5.7-9.9c-1.7-3-6.3-3.6-10.1-1.4l-3.5,2c-3.4-8.8-5.1-18.1-5.1-27.5c0-9.2,1.7-18.3,5-26.9l3.6,2.1
	c3.9,2.2,8.4,1.6,10.1-1.4l5.7-9.9c1.7-3,0-7.2-3.9-9.5l-3.7-2.1C2161.2,1141,2178.1,1131.2,2196.7,1128.2L2196.7,1128.2z"/>
<g id="g4661" transform="matrix(1.3462694,0,0,1.3462694,-1072.3577,-447.77608)">
	<path id="rect4622" class="st14" d="M2065.4,1156.3h246.8c7.2,0,13,5.8,13,13v107.4c0,7.2-5.8,13-13,13h-246.8c-7.2,0-13-5.8-13-13
		v-107.4C2052.4,1162.1,2058.2,1156.3,2065.4,1156.3z"/>
	<path id="path4634" class="st6" d="M2065.4,1156.3c-7.2,0-13,5.8-13,13v107.4c0,7.2,5.8,13,13,13h118.5
		c8.2-21.3,12.4-43.9,12.5-66.7c0-22.8-4.2-45.4-12.3-66.7H2065.4z"/>
</g>
<circle id="path4639" class="st6" cx="1244.8" cy="868.2" r="34.7"/>
<circle id="circle4641" class="st6" cx="1244.8" cy="1641.4" r="34.7"/>
<circle id="circle4643" class="st6" cx="2505.4" cy="1641.4" r="34.7"/>
<path id="rect1074" class="st15" d="M1256.9,806.9c-41.6,0-75,33.5-75,75v26c0-41.6,33.5-75,75-75h1234.7c41.6,0,75,33.5,75,75v-26
	c0-41.6-33.5-75-75-75H1256.9z"/>
<circle id="circle4645" class="st6" cx="2505.4" cy="868.2" r="34.7"/>
<path id="rect4674" class="st16" d="M2141.1,1578.1h-23.2c-9.7,0-17.5,6.6-17.5,14.8v17.4c0,8.2,7.8,14.8,17.5,14.8h23.2
	c9.7,0,17.5-6.6,17.5-14.8v-17.4C2158.6,1584.7,2150.8,1578.1,2141.1,1578.1z M2222.8,1633.2c0,15.8,12.8,28.6,28.6,28.6l0,0
	c15.8,0,28.6-12.8,28.6-28.6c0-15.8-12.8-28.6-28.6-28.6C2235.6,1604.7,2222.8,1617.4,2222.8,1633.2
	C2222.8,1633.2,2222.8,1633.2,2222.8,1633.2z M1616.2,1578.1h23.2c9.7,0,17.5,6.6,17.5,14.8v17.4c0,8.2-7.8,14.8-17.5,14.8h-23.2
	c-9.7,0-17.5-6.6-17.5-14.8v-17.4C1598.7,1584.7,1606.5,1578.1,1616.2,1578.1z M1534.4,1633.2c0,15.8-12.8,28.6-28.6,28.6l0,0
	c-15.8,0-28.6-12.8-28.6-28.6c0,0,0,0,0,0c0-15.8,12.8-28.6,28.6-28.6l0,0C1521.6,1604.7,1534.4,1617.4,1534.4,1633.2
	C1534.4,1633.2,1534.4,1633.2,1534.4,1633.2z"/>
<circle id="circle4676" class="st6" cx="1874.3" cy="1554.3" r="34.7"/>
<path id="rect4678" class="st6" d="M1335,1363.7h1067.1c9.6,0,17.5,6.6,17.5,14.8v71.4c0,8.2-7.8,14.8-17.5,14.8H1335
	c-9.6,0-17.5-6.6-17.5-14.8v-71.4C1317.5,1370.3,1325.3,1363.7,1335,1363.7z"/>
<g id="g4576" transform="matrix(1.3462694,0,0,1.3462694,-1209.102,-753.09072)">
	<path id="rect4689" class="st17" d="M2036.8,1980.2l-93.9,43.7c-22,10.2-22,26.6,0,36.8l93.5,43.3L2036.8,1980.2z"/>
	<path id="rect4685" class="st18" d="M2046.3,1975.4h641.9c8,0,14.5,4.2,14.5,9.4v115c0,5.2-6.5,9.4-14.5,9.4h-641.9
		c-8,0-14.5-4.2-14.5-9.4v-115C2031.8,1979.6,2038.3,1975.4,2046.3,1975.4z"/>
	<rect id="rect4699" x="2031.8" y="2011.7" class="st19" width="568.6" height="56.8"/>
	<path id="path4703" class="st20" d="M2036.8,1980.2l-93.9,43.7c-22,10.2-22,26.6,0,36.8l93.5,43.3L2036.8,1980.2z"/>
	<path id="rect4701" class="st21" d="M1953.9,2018.7l-11,5.1c-22,10.2-22,26.6,0,36.8l11.5,5.3c1.2-3.6,1.8-7.4,1.8-11.4v-23.1
		C1956.2,2027,1955.4,2022.7,1953.9,2018.7z"/>
	<path id="rect4709" class="st22" d="M2625.8,1975.4v133.8h44.2c18.1,0,32.7-4.2,32.7-9.4v-115c0-5.2-14.6-9.4-32.7-9.4H2625.8z"/>
	<rect id="rect4697" x="2592.5" y="1975.9" class="st23" width="45.6" height="131.8"/>
	<rect id="rect1262" x="2592.5" y="1975.9" class="st24" width="45.6" height="131.8"/>
</g>
<path id="path1095" class="st25" d="M1428.7,2019.7c0,0,0,0.1,0,0.1c0.3,1.1,0.8,2.2,1.4,3.3c1.2,2.2,2.8,4.3,4.9,6.4
	c0.5,0.5,1.1,1,1.6,1.5c1.2,1,2.4,2,3.8,3c0.7,0.5,1.4,1,2.2,1.4c1.5,0.9,3.1,1.9,4.9,2.8c0.9,0.4,1.8,0.9,2.7,1.3l15.5,7.2l-3.9,0
	l65.2,30.2c2.1,5.5,9.7,9.5,18.8,9.5h864.2c10.8,0,19.4-5.6,19.5-12.6c0,0,0,0,0,0V2042l-895.5-2.4L1428.7,2019.7z"/>
<path id="path1146" class="st26" d="M1385.1,1986.8c0,0,0-0.1,0-0.1c0.3-1.1,0.8-2.2,1.4-3.3c1.2-2.2,2.8-4.3,4.9-6.4
	c0.5-0.5,1.1-1,1.6-1.5c1.2-1,2.4-2,3.8-3c0.7-0.5,1.4-1,2.2-1.4c1.5-0.9,3.1-1.9,4.9-2.8c0.9-0.4,1.8-0.9,2.7-1.3l15.5-7.2
	l39.7-18.4l65.2-30.2c2.1-5.5,9.7-9.5,18.8-9.5h864.2c10.8,0,19.4,5.6,19.5,12.6c0,0,0,0,0,0v34.2l-895.5-3.5L1385.1,1986.8z"/>
<path id="rect938" class="st27" d="M1256.9,806.9h1234.7c41.4,0,75,33.6,75,75V1632c0,41.4-33.6,75-75,75H1256.9
	c-41.4,0-75-33.6-75-75V881.9C1181.9,840.5,1215.5,806.9,1256.9,806.9z"/>
<path id="rect942" class="st28" d="M1315.3,876.7c-9.7,0-17.5,8.9-17.5,19.9V915c0-11,7.8-19.9,17.5-19.9h1115.6
	c9.7,0,17.5,8.9,17.5,19.9v-18.4c0-11-7.8-19.9-17.5-19.9H1315.3z"/>
<path id="rect945" class="st29" d="M1315.3,876.7h1115.6c9.6,0,17.5,8.9,17.5,19.9v563.7c0,11-7.8,19.9-17.5,19.9H1315.3
	c-9.6,0-17.5-8.9-17.5-19.9V896.6C1297.8,885.6,1305.6,876.7,1315.3,876.7z"/>
<path id="path1069" class="st30" d="M1616.2,1578.1c-9.7,0-17.5,6.6-17.5,14.8v15.9c0-8.2,7.8-14.8,17.5-14.8h23.2
	c9.7,0,17.5,6.6,17.5,14.8v-15.9c0-8.2-7.8-14.8-17.5-14.8H1616.2z M2117.9,1578.1c-9.7,0-17.5,6.6-17.5,14.8v15.9
	c0-8.2,7.8-14.8,17.5-14.8h23.2c9.7,0,17.5,6.6,17.5,14.8v-15.9c0-8.2-7.8-14.8-17.5-14.8H2117.9z M1505.9,1604.7
	c-15.8,0-28.6,12.8-28.6,28.6c0,2.7,0.4,5.4,1.1,7.9c3.5-12.2,14.7-20.6,27.4-20.6c12.7,0,23.9,8.4,27.4,20.6
	c0.8-2.6,1.1-5.2,1.1-7.9C1534.4,1617.4,1521.6,1604.7,1505.9,1604.7L1505.9,1604.7z M2251.4,1604.7c-15.8,0-28.6,12.8-28.6,28.6
	c0,2.7,0.4,5.3,1.1,7.9c3.5-12.2,14.7-20.6,27.4-20.6c12.7,0,23.9,8.4,27.4,20.6c0.8-2.6,1.1-5.3,1.1-7.9
	C2279.9,1617.4,2267.2,1604.7,2251.4,1604.7L2251.4,1604.7z"/>
<path id="rect1083" class="st31" d="M1708.2,1109c-9.7,0-17.5,7.8-17.5,17.5v26c0-9.7,7.8-17.5,17.5-17.5h332.2
	c9.7,0,17.5,7.8,17.5,17.5v-26c0-9.7-7.8-17.5-17.5-17.5H1708.2z"/>
<g id="g1162" transform="matrix(1.3462694,0,0,1.3462694,-1209.102,-753.09072)">
	<path id="path1148" class="st32" d="M2036.8,1980.2l-93.9,43.7c-22,10.2-22,26.6,0,36.8l93.5,43.3L2036.8,1980.2z"/>
	<path id="rect1150" class="st33" d="M2046.3,1975.4h641.9c8,0,14.5,4.2,14.5,9.4v115c0,5.2-6.5,9.4-14.5,9.4h-641.9
		c-8,0-14.5-4.2-14.5-9.4v-115C2031.8,1979.6,2038.3,1975.4,2046.3,1975.4z"/>
	<path id="path1156" class="st34" d="M1953.9,2018.7l-11,5.1c-22,10.2-22,26.6,0,36.8l11.5,5.3c1.2-3.6,1.8-7.4,1.8-11.4v-23.1
		C1956.2,2027,1955.4,2022.7,1953.9,2018.7z"/>
</g>
<circle id="path1188" class="st35" cx="899.4" cy="1433.9" r="68.7"/>
<path id="path1190" class="st36" d="M1527,633.8l-101.9,27.3l-27.3-101.9l101.9-27.3L1527,633.8z"/>
<path id="path1194" class="st35" d="M2853.1,1577.5l-121.1,71.7l-1.6-140.8L2853.1,1577.5z"/>
<path id="path1204" class="st37" d="M1243.8,1960.9l-69.4,18.6l-18.6-69.4l69.4-18.6L1243.8,1960.9z"/>
<path id="path1196" class="st38" d="M1255.3,1946l-69.4,18.6l-18.6-69.4l69.4-18.6L1255.3,1946z"/>
<circle id="circle1198" class="st36" cx="2769.6" cy="975.4" r="45.6"/>
<path id="path1200" class="st36" d="M2145.8,651.5L2044,591l103.3-57.8L2145.8,651.5z"/>
<circle id="circle1206" class="st36" cx="2617.4" cy="1918.4" r="68.7"/>
<path id="path1208" class="st36" d="M2834.9,1192.7l53,91.2l-91.2,53l-53-91.2L2834.9,1192.7z"/>
<path id="path1210" class="st35" d="M1038.5,938.5l-107.3,91.1L906,891L1038.5,938.5z"/>
<path id="rect1252" class="st39" d="M2644.7,675.9h507.1c13.7,0,24.9,11.1,24.9,24.9v81.3c0,13.7-11.1,24.9-24.9,24.9h-507.1
	c-13.7,0-24.9-11.1-24.9-24.9v-81.3C2619.8,687,2631,675.9,2644.7,675.9z"/>
<path id="rect1254" class="st39" d="M595.1,1710.1h507.1c13.7,0,24.9,11.1,24.9,24.9v81.3c0,13.7-11.1,24.9-24.9,24.9H595.1
	c-13.7,0-24.9-11.1-24.9-24.9v-81.3C570.2,1721.2,581.4,1710.1,595.1,1710.1z"/>
<path id="path1256" class="st39" d="M3071.7,1151.1h-183v-183h183L3071.7,1151.1z"/>
<path id="path1258" class="st39" d="M989.1,781.2H853.3V645.5h135.8V781.2z"/>
</svg>
